<?xml version="1.0" encoding="UTF-8"?>
<svg version="1.1" xmlns="http://www.w3.org/2000/svg" width="512" height="512">
<path d="M0 0 C1.59219937 1.51154875 3.17560398 3.03241645 4.75 4.5625 C5.56984375 5.30886719 6.3896875 6.05523437 7.234375 6.82421875 C21.2805335 20.01975585 30.62564637 37.71445973 35.6875 56.1875 C35.88706299 56.90196289 36.08662598 57.61642578 36.29223633 58.35253906 C38.11884504 65.64594416 38.37934141 73.08126063 38.75 80.5625 C39.74330322 80.54678955 40.73660645 80.5310791 41.76000977 80.51489258 C45.47053818 80.46029801 49.18103158 80.42604344 52.8918457 80.39770508 C54.49314356 80.38268534 56.09440075 80.36226337 57.69555664 80.33618164 C60.00677571 80.29949562 62.31744756 80.28270565 64.62890625 80.26953125 C65.33648575 80.25404739 66.04406525 80.23856354 66.77308655 80.22261047 C73.18823483 80.22047334 78.11018296 81.86282168 82.83959961 86.19799805 C83.87083639 87.22985796 84.8914303 88.27244018 85.90234375 89.32421875 C86.44734024 89.87487503 86.99233673 90.42553131 87.55384827 90.99287415 C89.2747735 92.73600546 90.98118097 94.49258058 92.6875 96.25 C93.85909044 97.44167577 95.03160813 98.63244065 96.20507812 99.82226562 C99.0642123 102.72525749 101.91042008 105.64038338 104.75 108.5625 C105.5227124 107.77391602 106.2954248 106.98533203 107.09155273 106.17285156 C109.56852054 103.7406962 111.83392628 102.06189415 114.8125 100.3125 C115.64910156 99.81234375 116.48570312 99.3121875 117.34765625 98.796875 C123.75750172 95.50336091 131.55929918 95.56585769 138.4765625 97.2109375 C146.06965039 99.96137491 152.37687744 104.44868295 156.1875 111.6875 C157.53334317 114.59645249 158.14619361 117.42244861 158.75 120.5625 C159.51145356 120.55973462 160.27290712 120.55696924 161.05743504 120.55412006 C179.59455936 120.48783572 198.13166 120.43820748 216.6688776 120.40706348 C225.63338035 120.39160174 234.59780393 120.37052547 243.56225586 120.33618164 C251.37666119 120.30625807 259.19100918 120.28691996 267.00547022 120.28023452 C271.14228473 120.27632727 275.27893521 120.26715915 279.4156971 120.24530983 C283.31200268 120.2248979 287.20807718 120.21867567 291.10443115 120.22317696 C292.53184199 120.22235385 293.95926081 120.21641616 295.38662529 120.20488358 C309.17424364 120.09897962 309.17424364 120.09897962 314.75 123.5625 C317.55167349 126.59751875 318.12433944 128.58301959 318.11914349 132.67743301 C318.12511663 133.7164823 318.13108978 134.75553158 318.13724393 135.82606721 C318.1285054 136.96613654 318.11976688 138.10620587 318.11076355 139.28082275 C318.11332682 140.49297195 318.1158901 141.70512115 318.11853105 142.95400214 C318.12262269 146.32002545 318.11323016 149.68552714 318.09819686 153.05148745 C318.08525503 156.68062618 318.08962465 160.30974849 318.09190369 163.93890381 C318.0934776 170.22711259 318.08405612 176.51522808 318.06719017 182.80341339 C318.04282066 191.89508535 318.034997 200.98671214 318.0312262 210.07841322 C318.02465849 224.82866825 318.00468868 239.57887354 317.97631836 254.32910156 C317.94878604 268.65852611 317.92754841 282.98793716 317.91479492 297.31738281 C317.91400675 298.20048261 317.91321858 299.08358241 317.91240653 299.9934428 C317.90849145 304.42364527 317.90470031 308.85384784 317.90097082 313.28405046 C317.86986498 350.04356877 317.8170205 386.80303051 317.75 423.5625 C267.29370959 423.63113993 216.8374239 423.68401548 166.381096 423.71569599 C160.42667135 423.71944819 154.47224678 423.72333115 148.51782227 423.72729492 C147.33238437 423.72808185 146.14694648 423.72886878 144.92558623 423.72967956 C125.72148407 423.74273981 106.5174088 423.76639707 87.3133226 423.79395839 C67.6137843 423.82199535 47.9142601 423.83867264 28.21470267 423.84476548 C16.05527706 423.84888547 3.89592746 423.86190648 -8.26347475 423.8862494 C-16.59729081 423.90208548 -24.93106746 423.90690518 -33.26489747 423.90300413 C-38.07582486 423.90107928 -42.88661926 423.90406691 -47.69752312 423.92011642 C-52.10134992 423.93470082 -56.50495413 423.93546184 -60.90879112 423.92519668 C-62.5024493 423.92392772 -64.09612129 423.92774565 -65.68975223 423.93714955 C-67.85629632 423.94919141 -70.02203719 423.94269884 -72.18856907 423.93164349 C-73.99356966 423.93335223 -73.99356966 423.93335223 -75.83503491 423.93509549 C-80.92690615 423.37953834 -85.81102186 421.78679828 -89.171875 417.69921875 C-89.63384277 417.14967529 -90.09581055 416.60013184 -90.57177734 416.03393555 C-91.27874756 415.15088745 -91.27874756 415.15088745 -92 414.25 C-92.51385254 413.62971924 -93.02770508 413.00943848 -93.55712891 412.37036133 C-97.44117408 407.65265872 -101.21833022 402.8464768 -104.96826172 398.02172852 C-109.18325175 392.60448627 -113.54150263 387.31179492 -117.9152832 382.02246094 C-121.90318336 377.19937853 -125.86945432 372.35982471 -129.8125 367.5 C-130.34182129 366.84765381 -130.87114258 366.19530762 -131.41650391 365.52319336 C-132.48567632 364.20504674 -133.5546866 362.88676861 -134.62353516 361.56835938 C-137.41373007 358.12731443 -140.20672017 354.68854092 -143 351.25 C-143.54664307 350.57702881 -144.09328613 349.90405762 -144.65649414 349.21069336 C-147.68077774 345.48895702 -150.7111375 341.77235221 -153.75 338.0625 C-157.90203323 332.99368571 -162.03641576 327.91068766 -166.1652832 322.82299805 C-169.53195025 318.67463498 -172.90703452 314.53335319 -176.28930664 310.39770508 C-177.9168995 308.40028146 -179.53352491 306.39440106 -181.1484375 304.38671875 C-183.15515668 301.89369333 -185.20078906 299.44451328 -187.2890625 297.01953125 C-194.85032111 288.05655352 -194.85032111 288.05655352 -195.0625 282.0625 C-194.60749037 278.26870352 -193.92099621 275.40581855 -191.25 272.5625 C-185.48771032 269.47226879 -180.74123533 269.14528208 -174.27563477 269.22192383 C-173.29925552 269.22148575 -172.32287628 269.22104767 -171.31690979 269.22059631 C-168.10820111 269.2226767 -164.90002302 269.24597265 -161.69140625 269.26953125 C-159.45938909 269.27512986 -157.22736824 269.27939871 -154.99534607 269.28239441 C-149.13450862 269.29382223 -143.27389592 269.32327185 -137.41314697 269.35650635 C-130.37380873 269.39266182 -123.33439515 269.40637819 -116.29499054 269.42386627 C-105.61317095 269.45291019 -94.93184402 269.51041227 -84.25 269.5625 C-84.25 245.1425 -84.25 220.7225 -84.25 195.5625 C-87.88 195.2325 -91.51 194.9025 -95.25 194.5625 C-98.04068861 193.95707128 -100.66133072 193.32974433 -103.375 192.5 C-104.09018799 192.28303467 -104.80537598 192.06606934 -105.54223633 191.8425293 C-133.91500843 182.83328315 -157.14597651 163.528271 -171.40234375 137.38671875 C-184.7096495 110.72274257 -187.81935523 79.43351696 -178.80859375 50.90234375 C-169.25576573 22.31532009 -149.1866123 -0.97496177 -122.375 -14.6875 C-82.97184593 -34.08123989 -33.33560527 -29.44125886 0 0 Z " fill="#746F6F" transform="translate(194.25,57.4375)"/>
<path d="M0 0 C0.74803288 -0.0005344 1.49606576 -0.0010688 2.26676631 -0.0016194 C4.77878737 0.00017311 7.29015279 0.0234459 9.80206299 0.04640198 C11.63418482 0.05183042 13.46631123 0.05585917 15.29843903 0.05861855 C19.30491507 0.06751119 23.3111997 0.0858998 27.31760406 0.11142159 C33.89139797 0.15314112 40.46516681 0.17451371 47.0390625 0.19274902 C54.25599761 0.21360904 61.47291495 0.23589197 68.68982315 0.2647295 C87.91978598 0.34022467 107.14914263 0.3498784 126.37921143 0.33424377 C132.32480854 0.32957685 138.27040578 0.32516109 144.21600342 0.32121277 C144.96100635 0.32071331 145.70600927 0.32021386 146.47358805 0.31969927 C166.35932796 0.30710983 186.24502164 0.33419757 206.1307331 0.36634717 C210.00929451 0.37258524 213.88785632 0.37852752 217.76641846 0.3842926 C218.92139791 0.38602264 218.92139791 0.38602264 220.09971029 0.38778763 C232.82357673 0.40612553 245.54731991 0.39881052 258.27118483 0.38330383 C271.54985802 0.36767432 284.82831938 0.37838823 298.10695529 0.41391557 C306.19955892 0.4347591 314.29162264 0.43554863 322.38421288 0.40924817 C328.51171833 0.39152118 334.638604 0.41049624 340.76603508 0.44341278 C343.2686659 0.45110608 345.77136636 0.44685501 348.27395058 0.42975426 C351.68684932 0.40820487 355.09688945 0.4296443 358.50964355 0.46182251 C359.49592153 0.44532357 360.4821995 0.42882463 361.49836469 0.41182572 C367.9313873 0.53375018 371.16367572 2.08143235 375.74206519 6.61579794 C377.57430817 8.62638096 379.35827707 10.60964966 381.0022583 12.77906799 C384.44556144 17.22442615 387.94885633 21.60917668 391.5022583 25.96656799 C392.63129859 27.3544798 393.76020309 28.74250208 394.88897705 30.13063049 C395.45664795 30.82833557 396.02431885 31.52604065 396.60919189 32.24488831 C399.3459231 35.60919515 402.08023838 38.97546379 404.8147583 42.34156799 C405.89287723 43.66839584 406.97100225 44.99521874 408.0491333 46.32203674 C410.26839891 49.05338921 412.4870778 51.78521696 414.7053833 54.51734924 C419.40019589 60.29892401 424.09531737 66.08006072 428.8147583 71.84156799 C434.10426498 78.29901319 439.36378491 84.78075376 444.62530518 91.26100159 C447.35434521 94.62182228 450.08459855 97.9816569 452.8147583 101.34156799 C453.89809777 102.67489634 454.98143109 104.00822968 456.0647583 105.34156799 C456.8691333 106.33156799 456.8691333 106.33156799 457.6897583 107.34156799 C462.5647583 113.34156799 462.5647583 113.34156799 464.19073486 115.3427887 C465.27078846 116.67207295 466.35086647 118.00133737 467.43096924 119.33058167 C470.18968603 122.72570129 472.94793839 126.12119652 475.7053833 129.51734924 C476.26330566 130.20425842 476.82122803 130.8911676 477.39605713 131.59889221 C478.49544653 132.95290245 479.59425662 134.30738331 480.69244385 135.66236877 C483.15418057 138.69703392 485.624744 141.72256376 488.13116455 144.72047424 C488.95487549 145.70918518 489.77858643 146.69789612 490.6272583 147.71656799 C491.70427002 148.99660706 491.70427002 148.99660706 492.80303955 150.30250549 C494.3147583 152.34156799 494.3147583 152.34156799 494.3147583 154.34156799 C443.85846789 154.41020793 393.4021822 154.46308347 342.9458543 154.49476398 C336.99142965 154.49851618 331.03700508 154.50239914 325.08258057 154.50636292 C323.30442373 154.50754331 323.30442373 154.50754331 321.49034453 154.50874756 C302.28624237 154.5218078 283.0821671 154.54546506 263.8780809 154.57302638 C244.1785426 154.60106334 224.4790184 154.61774063 204.77946097 154.62383348 C192.62003536 154.62795346 180.46068576 154.64097448 168.30128355 154.66531739 C159.96746749 154.68115347 151.63369084 154.68597318 143.29986083 154.68207213 C138.48893344 154.68014727 133.67813904 154.6831349 128.86723518 154.69918442 C124.46340838 154.71376882 120.05980417 154.71452984 115.65596718 154.70426468 C114.062309 154.70299571 112.46863701 154.70681364 110.87500607 154.71621754 C108.70846198 154.7282594 106.54272111 154.72176683 104.37618923 154.71071148 C102.57118864 154.71242022 102.57118864 154.71242022 100.72972339 154.71416348 C95.63785215 154.15860634 90.75373644 152.56586627 87.3928833 148.47828674 C86.93091553 147.92874329 86.46894775 147.37919983 85.99298096 146.81300354 C85.52166748 146.22430481 85.050354 145.63560608 84.5647583 145.02906799 C84.05090576 144.40878723 83.53705322 143.78850647 83.00762939 143.14942932 C79.12358422 138.43172671 75.34642808 133.6255448 71.59649658 128.80079651 C67.38150655 123.38355426 63.02325567 118.09086291 58.6494751 112.80152893 C54.66157494 107.97844652 50.69530399 103.1388927 46.7522583 98.27906799 C46.22293701 97.6267218 45.69361572 96.97437561 45.14825439 96.30226135 C44.07908198 94.98411474 43.0100717 93.6658366 41.94122314 92.34742737 C39.15102823 88.90638243 36.35803813 85.46760891 33.5647583 82.02906799 C33.01811523 81.3560968 32.47147217 80.68312561 31.90826416 79.98976135 C28.88398057 76.26802501 25.8536208 72.55142021 22.8147583 68.84156799 C18.66272507 63.7727537 14.52834254 58.68975566 10.3994751 53.60206604 C7.03280805 49.45370297 3.65772378 45.31242119 0.27545166 41.17677307 C-1.3521412 39.17934946 -2.96876661 37.17346905 -4.5836792 35.16578674 C-6.59039838 32.67276132 -8.63603076 30.22358127 -10.7243042 27.79859924 C-18.28556281 18.83562151 -18.28556281 18.83562151 -18.4977417 12.84156799 C-18.04273207 9.04777152 -17.35623791 6.18488654 -14.6852417 3.34156799 C-9.6816631 0.78055463 -5.63797366 -0.08814238 0 0 Z " fill="#64B8FB" transform="translate(17.68524169921875,326.65843200683594)"/>
<path d="M0 0 C1.59219937 1.51154875 3.17560398 3.03241645 4.75 4.5625 C5.56984375 5.30886719 6.3896875 6.05523437 7.234375 6.82421875 C26.57677153 24.99525897 37.95048898 52.07994201 38.98828125 78.453125 C39.66174465 110.99172129 28.97763182 137.91105659 7.75 162.5625 C9.16920753 165.80345065 10.88308248 167.92085505 13.41015625 170.3828125 C14.4765332 171.43275391 14.4765332 171.43275391 15.56445312 172.50390625 C16.67723633 173.58478516 16.67723633 173.58478516 17.8125 174.6875 C19.28473193 176.12537561 20.75489156 177.56537708 22.22265625 179.0078125 C22.87500244 179.64219238 23.52734863 180.27657227 24.19946289 180.93017578 C26.30941572 183.15142356 26.72061279 184.29801509 27.0625 187.375 C26.65476184 191.53392925 25.8828445 192.77966662 22.75 195.5625 C19.27053808 196.32188258 15.83370594 196.23484698 12.28442383 196.19360352 C11.2187468 196.20075882 10.15306976 196.20791412 9.05509949 196.21528625 C5.52197708 196.23222864 1.99011501 196.21271981 -1.54296875 196.19140625 C-4.00759486 196.19223522 -6.4722209 196.19469568 -8.93684387 196.19871521 C-14.11455849 196.20157806 -19.29184179 196.18683779 -24.46948242 196.15942383 C-31.06392242 196.12557302 -37.6575793 196.1312774 -44.25205517 196.1500864 C-49.35092012 196.16073476 -54.44960765 196.151644 -59.54845619 196.13670158 C-61.97660098 196.13156086 -64.40476465 196.13195093 -66.83290672 196.13824654 C-99.90749898 196.19174559 -127.1035047 186.90851733 -151.74609375 164.125 C-173.89703548 141.4557055 -183.82262721 112.85192548 -183.59960938 81.4921875 C-182.94391508 49.80620393 -169.23754123 23.42637593 -146.6640625 1.671875 C-106.98909977 -35.28007554 -40.46921306 -35.74150125 0 0 Z " fill="#31A7FA" transform="translate(194.25,57.4375)"/>
<path d="M0 0 C5.56841139 -0.07444911 11.13652964 -0.12874318 16.70532227 -0.16479492 C18.59762625 -0.17983246 20.48989566 -0.20026785 22.38208008 -0.22631836 C25.11027586 -0.26292399 27.83800871 -0.2797769 30.56640625 -0.29296875 C31.40522842 -0.30845261 32.2440506 -0.32393646 33.10829163 -0.33988953 C38.50065554 -0.34141629 42.26089423 0.35089627 47 3 C49.80787852 6.00949571 50.37435115 8.00783097 50.36914349 12.08369827 C50.37511663 13.11578077 50.38108978 14.14786326 50.38724393 15.21122098 C50.37413614 16.90965213 50.37413614 16.90965213 50.36076355 18.64239502 C50.36332682 19.84637711 50.3658901 21.05035921 50.36853105 22.29082561 C50.37262257 25.63404711 50.3632305 28.9767434 50.34819686 32.31990147 C50.33525468 35.9245001 50.33962467 39.52908219 50.34190369 43.13369751 C50.34347758 49.37934471 50.33405633 55.62489797 50.31719017 61.87052155 C50.29282036 70.90065536 50.28499697 79.9307437 50.2812262 88.96090683 C50.27465854 103.61133344 50.25468886 118.26170997 50.22631836 132.91210938 C50.19878592 147.1445287 50.17754835 161.37693443 50.16479492 175.609375 C50.16400675 176.48650081 50.16321858 177.36362661 50.16240653 178.26733199 C50.15849145 182.66756631 50.15470031 187.06780073 50.15097082 191.46803522 C50.11986513 227.97872551 50.06702078 264.48935886 50 301 C44.49748949 295.51921687 44.49748949 295.51921687 42.16796875 292.80078125 C41.68400635 292.23697754 41.20004395 291.67317383 40.70141602 291.09228516 C39.95202759 290.2112915 39.95202759 290.2112915 39.1875 289.3125 C38.65761475 288.69165527 38.12772949 288.07081055 37.58178711 287.43115234 C34.05068861 283.27761382 30.60001595 279.06969708 27.21875 274.79296875 C24.19406272 270.98548388 21.12862811 267.21164387 18.0625 263.4375 C17.48185791 262.72158691 16.90121582 262.00567383 16.30297852 261.26806641 C15.48978149 260.26718994 15.48978149 260.26718994 14.66015625 259.24609375 C14.17168213 258.64466553 13.68320801 258.0432373 13.17993164 257.42358398 C12.06749589 256.03643631 12.06749589 256.03643631 11 255 C10.89616221 251.85107608 10.85843059 248.72380673 10.86196899 245.57427979 C10.85914771 244.57239931 10.85632643 243.57051883 10.85341966 242.53827834 C10.84503187 239.15344093 10.84373185 235.76863604 10.84228516 232.38378906 C10.83761999 229.9681387 10.83247693 227.55248922 10.82688904 225.13684082 C10.81558469 219.92086193 10.80711097 214.70488614 10.80076981 209.48889923 C10.79045875 201.24581257 10.76989864 193.00276644 10.74765015 184.75970459 C10.7401698 181.9413339 10.73275614 179.12296305 10.72536278 176.30459213 C10.72258693 175.24796715 10.72258693 175.24796715 10.719755 174.16999622 C10.69881411 166.14556132 10.679993 158.12112194 10.66210938 150.09667969 C10.6596521 148.99595842 10.6596521 148.99595842 10.65714519 147.87300035 C10.63086715 135.98450622 10.61222096 124.09600897 10.59551747 112.2074981 C10.57810123 100.00892184 10.54925959 87.81040662 10.5106281 75.61187911 C10.48721612 68.08414859 10.47323246 60.5565176 10.47130047 53.02875039 C10.46894323 47.25977319 10.45108547 41.49092548 10.42743111 35.72200012 C10.42021876 33.3536504 10.41814646 30.98527875 10.42153358 28.61692047 C10.42541331 25.38894876 10.41102165 22.16156079 10.39199829 18.93365479 C10.40029283 17.52076435 10.40029283 17.52076435 10.40875494 16.07933068 C10.35940581 11.24339807 10.18521535 7.90895333 7 4 C5.23419884 2.80126145 5.23419884 2.80126145 3.3125 2.1875 C1.6728125 1.5996875 1.6728125 1.5996875 0 1 C0 0.67 0 0.34 0 0 Z " fill="#5B5555" transform="translate(462,178)"/>
<path d="M0 0 C28.22235073 -0.72738017 56.75234857 9.33948196 77.2890625 28.8359375 C78.45695312 29.97095703 78.45695312 29.97095703 79.6484375 31.12890625 C80.46828125 31.87527344 81.288125 32.62164062 82.1328125 33.390625 C101.47520903 51.56166522 112.84892648 78.64634826 113.88671875 105.01953125 C114.56018215 137.55812754 103.87606932 164.47746284 82.6484375 189.12890625 C84.06764503 192.3698569 85.78151998 194.4872613 88.30859375 196.94921875 C89.01951172 197.64917969 89.73042969 198.34914062 90.46289062 199.0703125 C91.57567383 200.15119141 91.57567383 200.15119141 92.7109375 201.25390625 C94.18316943 202.69178186 95.65332906 204.13178333 97.12109375 205.57421875 C97.77343994 206.20859863 98.42578613 206.84297852 99.09790039 207.49658203 C101.20785322 209.71782981 101.61905029 210.86442134 101.9609375 213.94140625 C101.55945255 218.03655272 100.66677418 219.3414694 97.6484375 222.12890625 C94.55485518 222.57432233 92.02651405 222.71528629 88.9453125 222.6171875 C88.10752258 222.61011276 87.26973267 222.60303802 86.40655518 222.5957489 C83.73626603 222.56780691 81.06809042 222.50507238 78.3984375 222.44140625 C76.58596783 222.41632296 74.77346522 222.39350984 72.9609375 222.37304688 C68.52262579 222.31798129 64.08588969 222.23171292 59.6484375 222.12890625 C60.13183594 221.54753906 60.61523438 220.96617187 61.11328125 220.3671875 C62.96667804 217.66490669 63.25602817 215.47158636 63.12890625 212.21484375 C61.93963917 207.05168425 57.4235553 203.69187696 53.4609375 200.50390625 C49.60211772 197.24534732 47.87123668 194.98859734 47.265625 189.93359375 C47.76482455 184.97216149 49.68692759 182.50953881 52.6484375 178.62890625 C71.09992359 153.09671443 78.42155922 124.41861639 73.82421875 93.01513672 C68.80345518 64.35494469 53.13335969 38.60749279 29.28491211 21.796875 C16.06366501 12.83213058 0.46094751 5.84229554 -15.3515625 3.12890625 C-11.55663878 -0.66601747 -5.14799429 0.28219902 0 0 Z " fill="#1C96F8" transform="translate(119.3515625,30.87109375)"/>
<path d="M0 0 C7.2587399 -0.17805392 14.51691321 -0.3003105 21.77734375 -0.38452148 C24.24500574 -0.41963971 26.71252295 -0.46734647 29.1796875 -0.52807617 C32.73473889 -0.61336874 36.28785918 -0.65277691 39.84375 -0.68359375 C40.93989624 -0.71972275 42.03604248 -0.75585175 43.16540527 -0.79307556 C48.84101778 -0.79595962 52.25047259 -0.38411022 56.63012695 3.3984375 C57.78506901 4.56854084 58.91368899 5.76591679 60 7 C61.02673828 8.14275391 61.02673828 8.14275391 62.07421875 9.30859375 C62.60660156 10.01113281 63.13898438 10.71367187 63.6875 11.4375 C67.13080314 15.88285816 70.63409803 20.26760869 74.1875 24.625 C75.31654029 26.01291181 76.44544479 27.40093408 77.57421875 28.7890625 C78.4257251 29.83562012 78.4257251 29.83562012 79.29443359 30.90332031 C82.0311648 34.26762715 84.76548008 37.6338958 87.5 41 C88.57811893 42.32682785 89.65624395 43.65365075 90.734375 44.98046875 C92.95364061 47.71182122 95.1723195 50.44364896 97.390625 53.17578125 C102.08543759 58.95735602 106.78055907 64.73849273 111.5 70.5 C116.78950668 76.9574452 122.04902661 83.43918576 127.31054688 89.91943359 C130.03958691 93.28025428 132.76984025 96.6400889 135.5 100 C136.58333946 101.33332835 137.66667279 102.66666169 138.75 104 C139.554375 104.99 139.554375 104.99 140.375 106 C142 108 143.625 110 145.25 112 C145.78665283 112.6604834 146.32330566 113.3209668 146.8762207 114.00146484 C147.95553408 115.32987551 149.0347987 116.65832579 150.11401367 117.98681641 C152.88344623 121.39579923 155.65381835 124.80401176 158.42578125 128.2109375 C161.13880091 131.54544013 163.84731728 134.88356631 166.5546875 138.22265625 C167.895661 139.87169122 169.243479 141.51482682 170.59375 143.15625 C171.3259375 144.0534375 172.058125 144.950625 172.8125 145.875 C173.43769531 146.63554687 174.06289063 147.39609375 174.70703125 148.1796875 C176 150 176 150 176 152 C169.10055345 152.35763494 162.20352197 152.60117308 155.296875 152.76904297 C152.95286806 152.8390663 150.60946434 152.9343296 148.26757812 153.05615234 C127.73570914 154.09673685 127.73570914 154.09673685 121.85131836 148.99267578 C119.17576034 146.13372221 117.02099394 143.05454429 115.02760315 139.69129944 C113.58735939 137.3208479 111.84622578 135.24332579 110.0625 133.125 C109.43730469 132.33222656 108.81210937 131.53945313 108.16796875 130.72265625 C106.5013706 128.6296492 104.81734611 126.55827117 103.11328125 124.49609375 C96.59244894 116.58767966 90.36597769 108.52616875 84.32641602 100.24438477 C80.07582325 94.4267532 75.73327904 88.68938051 71.3125 83 C70.72412354 82.24025879 70.13574707 81.48051758 69.52954102 80.69775391 C68.97967529 79.99312012 68.42980957 79.28848633 67.86328125 78.5625 C67.38157471 77.94503906 66.89986816 77.32757813 66.40356445 76.69140625 C64.32899972 74.19139156 62.21362658 72.16171076 59.62109375 70.19921875 C56.64249027 67.70003282 54.38819095 64.89681543 52.0625 61.8125 C47.84563102 56.33391359 43.5347948 50.94958617 39.125 45.625 C34.45412887 39.97830764 29.80374442 34.31646507 25.1875 28.625 C24.38022461 27.63040771 24.38022461 27.63040771 23.55664062 26.61572266 C21.59570504 24.19961306 19.63507743 21.78325436 17.67529297 19.36621094 C9.7267181 8.75707395 9.7267181 8.75707395 0 0 Z " fill="#31A6FA" transform="translate(335,328)"/>
<path d="M0 0 C6.95358647 3.09426097 11.69313372 8.35009739 16.9375 13.75 C17.81212891 14.63816406 18.68675781 15.52632812 19.58789062 16.44140625 C21.7322579 18.62092708 23.86927246 20.80715676 26 23 C29.53323172 21.4994769 31.74536516 19.462001 34.40625 16.71875 C35.23253906 15.87699219 36.05882812 15.03523438 36.91015625 14.16796875 C37.76480469 13.28753906 38.61945313 12.40710938 39.5 11.5 C41.19314885 9.75577577 42.89088708 8.01599179 44.59375 6.28125 C45.71813477 5.12206055 45.71813477 5.12206055 46.86523438 3.93945312 C51.1935819 0.00711178 54.76599685 -0.45127475 60.46484375 -0.30859375 C65.07650201 0.25276373 68.26861817 1.92439685 71.31640625 5.578125 C73.97623693 9.69298501 74.69183007 13.07071077 74 18 C70.95529616 25.80846799 65.7169221 30.75036078 59.75 36.5 C58.81414062 37.4178125 57.87828125 38.335625 56.9140625 39.28125 C54.61822861 41.53023014 52.31356568 43.76928929 50 46 C54.89530037 51.88195006 60.16744527 57.19980438 65.69726562 62.48242188 C70.27501107 66.95874698 73.58575993 70.80443372 74.4375 77.375 C73.78620198 82.77146933 71.93361861 87.1835704 67.9375 90.9375 C62.8842389 93.70864319 57.59173716 94.0946787 52 93 C48.68479947 90.95175509 46.12691989 88.37954093 43.46728516 85.54638672 C41.76758017 83.75505038 40.01885508 82.02016797 38.26171875 80.28515625 C34.8167694 76.88035983 31.40278787 73.44691625 28 70 C24.46776191 71.49819232 22.27656117 73.5282629 19.62890625 76.28125 C18.80712891 77.12300781 17.98535156 77.96476562 17.13867188 78.83203125 C15.42310762 80.6087263 13.70955928 82.38737016 11.99804688 84.16796875 C11.17498047 85.00972656 10.35191406 85.85148437 9.50390625 86.71875 C8.38737671 87.87793945 8.38737671 87.87793945 7.24829102 89.06054688 C2.55649642 93.10785019 -2.26742998 93.55032502 -8.26953125 93.453125 C-12.65648028 92.72510485 -15.29689179 90.43602094 -18 87 C-19.77964074 84.05605193 -20.3688697 81.68124293 -20.5 78.25 C-20.5515625 77.45078125 -20.603125 76.6515625 -20.65625 75.828125 C-18.74013502 67.57058187 -10.44360807 61.19796707 -4.625 55.5 C-3.79355469 54.67757812 -2.96210937 53.85515625 -2.10546875 53.0078125 C-0.07484018 51.00052449 1.96033167 48.99809466 4 47 C-1.12177977 40.83936867 -6.68423735 35.27282343 -12.4296875 29.69726562 C-13.11804688 29.01986328 -13.80640625 28.34246094 -14.515625 27.64453125 C-15.44810059 26.73731323 -15.44810059 26.73731323 -16.39941406 25.81176758 C-20.10217237 21.62046657 -20.44027316 17.89910928 -20.3125 12.46875 C-19.6802834 7.47423884 -16.97164099 4.87910375 -13.375 1.625 C-8.88341255 -0.53761618 -4.89844192 -0.97824978 0 0 Z " fill="#F5F2F1" transform="translate(95,96)"/>
<path d="M0 0 C0.92108047 -0.00708481 1.84216095 -0.01416962 2.79115295 -0.02146912 C3.80468842 -0.0189917 4.81822388 -0.01651428 5.86247253 -0.01396179 C7.46020256 -0.02162819 7.46020256 -0.02162819 9.09020996 -0.02944946 C12.62657728 -0.04339844 16.16275082 -0.04238441 19.69914246 -0.04008484 C22.15053378 -0.04396943 24.60192444 -0.04830361 27.05331421 -0.05307007 C32.19903237 -0.06054413 37.34468195 -0.06023284 42.49040222 -0.05497742 C49.08818453 -0.04918748 55.68568569 -0.06609681 62.28342152 -0.08932209 C67.34915817 -0.10404875 72.41482701 -0.10493246 77.48058128 -0.10181236 C79.91307316 -0.10232632 82.34556875 -0.10757786 84.77803993 -0.11762428 C88.18006801 -0.12994757 91.58154712 -0.12322073 94.98356628 -0.11161804 C96.49476044 -0.12308365 96.49476044 -0.12308365 98.03648376 -0.13478088 C106.63306583 -0.06991104 106.63306583 -0.06991104 110.61711121 3.26069641 C112.50295165 5.51908421 114.2272709 7.74719826 115.92961121 10.13569641 C116.96937085 11.56937306 118.01115121 13.0015857 119.05461121 14.43257141 C119.61664246 15.20407532 120.17867371 15.97557922 120.75773621 16.77046204 C122.78346619 19.48349327 124.87880128 22.13100228 126.99211121 24.77632141 C127.72776306 25.70718567 128.46341492 26.63804993 129.22135925 27.59712219 C130.67596465 29.43399371 132.14333486 31.26083959 133.62419128 33.07661438 C134.28830017 33.92368958 134.95240906 34.77076477 135.63664246 35.64350891 C136.23581482 36.39003723 136.83498718 37.13656555 137.45231628 37.90571594 C139.03255672 41.10064348 138.65206049 42.90108737 137.61711121 46.26069641 C134.48237614 48.35051979 133.76490485 48.51290346 130.19662476 48.52812195 C129.29244308 48.53665192 128.38826141 48.54518188 127.4566803 48.55397034 C125.9721788 48.55261078 125.9721788 48.55261078 124.45768738 48.55122375 C123.41350143 48.55794098 122.36931549 48.5646582 121.29348755 48.57157898 C117.83230362 48.59061844 114.37131303 48.59448634 110.91007996 48.59663391 C108.50735392 48.60305823 106.10462867 48.60978631 103.7019043 48.61680603 C98.66051927 48.62879407 93.61920284 48.63248533 88.57780457 48.63130188 C82.11796065 48.63109873 75.65855687 48.65839046 69.19881725 48.6928463 C64.2342629 48.71508629 59.2698149 48.71914029 54.30521584 48.71808243 C51.92378028 48.72044316 49.54234201 48.72929309 47.16095543 48.74474716 C43.82856347 48.76434552 40.49712601 48.75859229 37.16471863 48.74653625 C36.18112366 48.75777527 35.19752869 48.76901428 34.18412781 48.78059387 C28.33317888 48.72681208 25.10750015 48.09217155 20.61711121 44.26069641 C18.74943542 42.2245636 18.74943542 42.2245636 17.17179871 40.05757141 C16.57504333 39.24949036 15.97828796 38.4414093 15.3634491 37.60884094 C14.74590759 36.75145325 14.12836609 35.89406555 13.49211121 35.01069641 C12.17633936 33.21075332 10.85992374 31.41128067 9.54289246 29.61225891 C8.88885437 28.71410461 8.23481628 27.81595032 7.56095886 26.89057922 C5.73825247 24.42459162 3.87123745 22.00440827 1.97257996 19.59663391 C1.41522156 18.88281555 0.85786316 18.16899719 0.28361511 17.43354797 C-0.75958564 16.10168071 -1.81282837 14.77759762 -2.8775177 13.46284485 C-5.11109147 10.57616574 -6.33878809 8.59242735 -6.82429504 4.94038391 C-6.07435694 0.38766233 -4.19166227 0.01071812 0 0 Z " fill="#F7F2F0" transform="translate(289.3828887939453,397.7393035888672)"/>
<path d="M0 0 C30.69 0.33 61.38 0.66 93 1 C92.67 2.32 92.34 3.64 92 5 C93.41076007 7.07163195 93.41076007 7.07163195 95.55078125 8.96875 C96.31197266 9.70480469 97.07316406 10.44085938 97.85742188 11.19921875 C98.66759766 11.95847656 99.47777344 12.71773438 100.3125 13.5 C101.89630314 15.00582736 103.47591023 16.51608344 105.05078125 18.03125 C105.75887939 18.69705078 106.46697754 19.36285156 107.1965332 20.04882812 C108.99562687 21.99526871 110.07098853 23.52589899 111 26 C110.67903905 32.09825798 110.67903905 32.09825798 108.72564983 34.69229603 C106.52735561 36.35817171 105.31843908 36.37040483 102.57710266 36.36076355 C101.67266418 36.36488754 100.76822571 36.36901154 99.83638 36.3732605 C98.84663681 36.36247467 97.85689362 36.35168884 96.8371582 36.34057617 C95.79308807 36.34101425 94.74901794 36.34145233 93.67330933 36.34190369 C90.21561102 36.33981043 86.75839506 36.31645355 83.30078125 36.29296875 C80.90610519 36.28737472 78.51142571 36.28310371 76.116745 36.28010559 C69.80869089 36.26864169 63.50084345 36.23916101 57.19287109 36.20599365 C50.75816646 36.17532618 44.3234285 36.16160735 37.88867188 36.14648438 C25.2590091 36.11429293 12.62955405 36.06151218 0 36 C0 24.12 0 12.24 0 0 Z " fill="#5B5555" transform="translate(110,253)"/>
<path d="M0 0 C5.69472921 4.59150676 8.46057977 9.61220807 10.7421875 16.45703125 C11.61230126 26.62737736 10.19623689 34.17436748 4.6171875 42.70703125 C-3.22886949 50.21195533 -10.58631778 52.82383444 -21.234375 52.65625 C-30.37819771 52.05375005 -36.17731507 47.09714969 -42.2578125 40.45703125 C-44.96361148 36.47290205 -46.78762819 32.27642038 -47.2578125 27.45703125 C-47.33257812 26.83570313 -47.40734375 26.214375 -47.484375 25.57421875 C-48.03594265 17.47488322 -44.801937 9.50078667 -40.0078125 3.01953125 C-28.63456663 -7.57826604 -12.89406775 -8.8116899 0 0 Z " fill="#99D53C" transform="translate(342.2578125,159.54296875)"/>
<path d="M0 0 C4.97837372 3.22428277 8.74188309 7.93901975 11.41796875 13.1796875 C12.73742296 21.26134451 12.57059161 28.24381328 7.91796875 35.2421875 C3.41802765 40.16487881 -1.09250034 43.70611192 -7.84375 44.61328125 C-15.30925301 44.78272524 -20.99940062 43.75824364 -27.08203125 39.2421875 C-32.40741969 33.66734095 -34.23326373 29.15824592 -34.33203125 21.4296875 C-34.37070312 19.62564453 -34.37070312 19.62564453 -34.41015625 17.78515625 C-33.87421595 11.99827702 -31.15854118 7.31869743 -27.08203125 3.2421875 C-18.8426129 -2.3532384 -9.35498132 -4.05061047 0 0 Z " fill="#9AD63D" transform="translate(436.08203125,104.7578125)"/>
<path d="M0 0 C4.75053511 -0.07435222 9.50072887 -0.12869691 14.25170898 -0.16479492 C15.86667789 -0.17984876 17.48160613 -0.20029648 19.09643555 -0.22631836 C21.42246555 -0.26285286 23.74795341 -0.27976015 26.07421875 -0.29296875 C27.15107185 -0.31619453 27.15107185 -0.31619453 28.24967957 -0.33988953 C32.70597272 -0.34137376 35.46132252 0.26495043 39 3 C40.88584045 5.25838779 42.6101597 7.48650185 44.3125 9.875 C45.35225964 11.30867665 46.39404001 12.74088929 47.4375 14.171875 C47.99953125 14.94337891 48.5615625 15.71488281 49.140625 16.50976562 C51.16635498 19.22279685 53.26169007 21.87030587 55.375 24.515625 C56.11065186 25.44648926 56.84630371 26.37735352 57.60424805 27.33642578 C59.05885345 29.1732973 60.52622365 31.00014318 62.00708008 32.81591797 C62.67118896 33.66299316 63.33529785 34.51006836 64.01953125 35.3828125 C64.61870361 36.12934082 65.21787598 36.87586914 65.83520508 37.64501953 C67.41544552 40.83994707 67.03494928 42.64039096 66 46 C62.84632965 48.1024469 62.1323113 48.24885554 58.53913879 48.24050903 C57.16985985 48.24463303 57.16985985 48.24463303 55.7729187 48.24884033 C54.77382477 48.24164978 53.77473083 48.23445923 52.74536133 48.22705078 C51.16462578 48.22748886 51.16462578 48.22748886 49.55195618 48.22793579 C46.06189801 48.22654028 42.57205221 48.21096847 39.08203125 48.1953125 C36.66493344 48.19158316 34.24783412 48.18873582 31.83073425 48.18673706 C25.4635502 48.17909438 19.09645714 48.15944037 12.72930908 48.1373291 C6.23426545 48.11688438 -0.26079285 48.10773828 -6.75585938 48.09765625 C-19.50394511 48.07619514 -32.25196772 48.04243498 -45 48 C-45 47.67 -45 47.34 -45 47 C-44.05008682 46.98969254 -43.10017365 46.97938507 -42.12147522 46.96876526 C-33.18902136 46.87119905 -24.25663978 46.76848134 -15.32430363 46.66066074 C-10.73160822 46.60539035 -6.1389065 46.55196391 -1.54614258 46.50268555 C2.88239331 46.45510253 7.31084929 46.40276219 11.73929024 46.34705925 C13.43263331 46.32660813 15.12599831 46.3078997 16.81937981 46.29092598 C19.18297163 46.26694272 21.54641104 46.23688034 23.90991211 46.20532227 C24.97050339 46.19668907 24.97050339 46.19668907 26.05252075 46.18788147 C29.30774294 46.41161556 29.30774294 46.41161556 32 45 C31.80669973 38.58082025 29.51760215 35.44664061 25.5 30.8125 C24.40212179 29.49606119 23.30578387 28.17833639 22.2109375 26.859375 C21.66663086 26.21033203 21.12232422 25.56128906 20.56152344 24.89257812 C18.32329257 22.17982552 16.22380202 19.38477985 14.125 16.5625 C13.05572266 15.12777344 13.05572266 15.12777344 11.96484375 13.6640625 C10.72043314 11.97680994 9.48260053 10.28466918 8.25390625 8.5859375 C7.73699219 7.87695312 7.22007812 7.16796875 6.6875 6.4375 C6.25824219 5.83808594 5.82898438 5.23867188 5.38671875 4.62109375 C3.78363032 2.7470608 1.98572039 1.45160037 0 0 Z " fill="#EAE1DE" transform="translate(361,398)"/>
<path d="M0 0 C2.60417798 2.10862567 4.81926456 4.4613323 7 7 C7.45890625 6.59007812 7.9178125 6.18015625 8.390625 5.7578125 C9.00421875 5.21898437 9.6178125 4.68015625 10.25 4.125 C10.85328125 3.59132813 11.4565625 3.05765625 12.078125 2.5078125 C15.44028874 -0.12998263 17.21702505 -1.04120921 21.5625 -0.8125 C26.33357825 0.3152094 26.33357825 0.3152094 28 3 C29.04947686 6.44828111 29.33698106 8.23243204 27.875 11.5625 C25.78054043 14.28529744 23.49381507 16.64098574 21 19 C22.19432131 21.82294128 23.5118514 23.58675649 25.5625 25.9375 C29 30.25641026 29 30.25641026 29 34 C26.72289157 39.63855422 26.72289157 39.63855422 24 41 C20.875 41.5 20.875 41.5 17 41 C14.7252243 39.33349765 12.78188525 37.53214033 10.796875 35.53125 C9.01290943 33.67569575 9.01290943 33.67569575 6 34 C4.12844852 35.5517056 4.12844852 35.5517056 2.25 37.5 C-0.69445787 40.16841494 -1.71639314 40.94800541 -5.75 41.6875 C-9 41 -9 41 -11.4375 39.5 C-13.1873397 36.70025648 -13.73620291 34.48380705 -13.60546875 31.171875 C-12.41633782 26.90634729 -9.12447605 23.99694641 -6 21 C-7.30783654 18.14598288 -8.41623653 16.55403229 -10.625 14.1875 C-13 11 -13 11 -13.5 7.375 C-12.98342839 3.88814162 -12.51276522 2.41969984 -10 0 C-6.06109524 -1.31296825 -4.02680356 -1.07381428 0 0 Z " fill="#A8E7EF" transform="translate(32,258)"/>
<path d="M0 0 C3.64591419 5.46887128 3.59480555 10.60793477 3 17 C1.06591025 24.63689152 -2.63981424 31.08057127 -9.24609375 35.50390625 C-17.05902001 40.00692286 -23.97148 40.93398483 -33 40 C-36.65708859 38.7678273 -39.7651616 37.08777562 -43 35 C-44.3921875 34.13375 -44.3921875 34.13375 -45.8125 33.25 C-51.24101909 27.66638036 -54.99900171 19.81047634 -55.25 12 C-55.1667123 8.3908665 -54.34597506 5.36493764 -53 2 C-52.01 2 -51.02 2 -50 2 C-48.421875 3.609375 -48.421875 3.609375 -46.75 5.75 C-41.9786599 11.44938088 -36.8271373 14.56824725 -29.3359375 15.23828125 C-20.75633826 15.45333717 -14.40815108 13.84080847 -7.1875 9.1875 C-4.35441755 6.35441755 -2.23732098 3.32401974 0 0 Z " fill="#5B5555" transform="translate(350,196)"/>
<path d="M0 0 C7.16829477 2.4061409 12.42036295 5.79586159 16.359375 12.375 C19.61792095 19.14274927 20.25042986 26.64647999 17.921875 33.875 C14.8032634 41.1078363 9.18175364 46.68444984 1.984375 49.75 C-1.06938615 49.97903209 -2.36515032 49.26329975 -4.73828125 47.390625 C-10.15340318 42.37790066 -14.28446369 36.24440347 -15.015625 28.75 C-15.09039062 28.12867188 -15.16515625 27.50734375 -15.2421875 26.8671875 C-15.80225174 18.64308624 -12.52742818 10.51087386 -7.390625 4.125 C-2.90528017 -0.36034483 -2.90528017 -0.36034483 0 0 Z " fill="#BBE972" transform="translate(310.015625,158.25)"/>
<path d="M0 0 C3.96655624 0.63748225 5.64979467 1.79866453 8.5 4.5625 C10.99361571 3.35868552 13.18143083 2.10821278 15.5 0.5625 C19.8449714 -0.00073703 21.81909089 0.10856059 25.5 2.5625 C27.85130971 6.08946456 27.94413869 7.58695853 27.1640625 11.625 C26.18924326 14.46917849 24.5716926 16.4239786 22.5 18.5625 C23.4590625 19.305 23.4590625 19.305 24.4375 20.0625 C27.19937372 23.41022572 27.83274467 26.25388308 27.5 30.5625 C26.0625 33.5625 26.0625 33.5625 23.5 35.5625 C18.56667872 36.26726018 16.65562097 36.33291398 12.5 33.5625 C11.84 32.9025 11.18 32.2425 10.5 31.5625 C8.00638429 32.76631448 5.81856917 34.01678722 3.5 35.5625 C-3.50303951 36.3406155 -3.50303951 36.3406155 -7.0625 33.5625 C-8.93008202 29.66493753 -8.80648077 26.58743455 -7.5 22.5625 C-5.4375 19.5625 -5.4375 19.5625 -3.5 17.5625 C-4.325 16.69625 -5.15 15.83 -6 14.9375 C-7.93080098 12.59295595 -8.49675583 11.57839641 -9.125 8.5 C-7.99311903 3.18015945 -5.31216076 0.85374012 0 0 Z " fill="#63B9FC" transform="translate(352.5,66.4375)"/>
<path d="M0 0 C1.59702003 -0.0237545 1.59702003 -0.0237545 3.2263031 -0.04798889 C4.9435836 -0.04054909 4.9435836 -0.04054909 6.69555664 -0.03295898 C7.87662491 -0.03915756 9.05769318 -0.04535614 10.27455139 -0.05174255 C12.77189306 -0.0588455 15.26928203 -0.05565854 17.76660156 -0.04296875 C21.588208 -0.02911619 25.40736067 -0.06315607 29.22875977 -0.10131836 C31.65519266 -0.10226965 34.08162861 -0.10041018 36.50805664 -0.09545898 C37.65088608 -0.10871719 38.79371552 -0.1219754 39.97117615 -0.13563538 C47.85651477 -0.04308541 47.85651477 -0.04308541 51.92431641 2.84619141 C53.66821289 5.53344727 53.66821289 5.53344727 53.73071289 9.15844727 C52.54774636 12.91610567 51.97780704 13.61392541 48.66821289 15.53344727 C46.1640625 15.92785645 46.1640625 15.92785645 43.32055664 15.95336914 C42.25264893 15.96928101 41.18474121 15.98519287 40.08447266 16.00158691 C38.36248657 16.00188904 38.36248657 16.00188904 36.60571289 16.00219727 C35.42227295 16.00981079 34.23883301 16.01742432 33.01953125 16.02526855 C30.51800649 16.03607161 28.01643662 16.03892185 25.51489258 16.03442383 C21.68242491 16.03345087 17.85195428 16.07508781 14.01977539 16.11938477 C11.59009207 16.12459112 9.16040178 16.12727997 6.73071289 16.12719727 C5.58272217 16.14359253 4.43473145 16.15998779 3.25195312 16.17687988 C-4.66502742 16.10789375 -4.66502742 16.10789375 -8.05444336 13.18774414 C-9.61348416 9.94808597 -9.93609582 8.08376096 -9.33178711 4.53344727 C-6.45251409 0.88732371 -4.60174235 0.03049611 0 0 Z " fill="#F6F2F1" transform="translate(210.331787109375,437.466552734375)"/>
<path d="M0 0 C0.66 0 1.32 0 2 0 C2.62804622 29.55682139 2.62804622 29.55682139 -1 42 C-1.35191406 43.24523437 -1.70382813 44.49046875 -2.06640625 45.7734375 C-4.67846719 54.48802224 -8.42421272 62.18028283 -13 70 C-17.32504836 68.34136495 -20.09418825 65.128959 -23.25 61.875 C-23.80429688 61.31167969 -24.35859375 60.74835938 -24.9296875 60.16796875 C-26.29104485 58.78313972 -27.64614859 57.39216796 -29 56 C-27.36721492 52.24997712 -24.91852755 49.28207055 -22.375 46.125 C-11.47869571 32.24492472 -4.8827523 16.91232642 0 0 Z " fill="#5A5556" transform="translate(230,166)"/>
<path d="M0 0 C6.14973856 1.47058966 10.33735422 3.66101836 13.75 9 C16.6635604 13.86822751 17.84918392 18.32287153 17 24 C14.92921077 29.73118846 12.43700245 34.89314146 7 38 C3.5625 39.5625 3.5625 39.5625 0 40 C-5.16407851 36.96230676 -8.4019174 32.80546391 -10 27 C-10.91549133 17.99938295 -10.40420251 11.68077846 -5 4.25 C-3 2 -3 2 0 0 Z " fill="#BBE972" transform="translate(412,106)"/>
<path d="M0 0 C1.13244141 -0.01998047 2.26488281 -0.03996094 3.43164062 -0.06054688 C11.67922799 -0.05568678 11.67922799 -0.05568678 15.80859375 2.25 C17.5625 4.4375 17.5625 4.4375 18.1875 7.875 C17.37033437 12.53284407 16.41260291 13.67740193 12.5625 16.4375 C8.5275548 17.1073343 4.57870368 16.99859708 0.5 16.875 C-0.58861328 16.86919922 -1.67722656 16.86339844 -2.79882812 16.85742188 C-11.76776445 16.71943824 -11.76776445 16.71943824 -15.4375 14.4375 C-17.5190902 11.76116974 -17.43337591 10.31996332 -17.3125 6.875 C-16.4375 3.4375 -16.4375 3.4375 -14.73803711 1.74975586 C-10.26468036 -0.80190418 -5.02416706 -0.03134761 0 0 Z " fill="#F2F0F1" transform="translate(228.4375,411.5625)"/>
</svg>
